<?xml version="1.0" encoding="utf-8"?>
<!-- Generator: Adobe Illustrator 25.2.0, SVG Export Plug-In . SVG Version: 6.00 Build 0)  -->
<svg version="1.1" id="Layer_1" xmlns="http://www.w3.org/2000/svg" xmlns:xlink="http://www.w3.org/1999/xlink" x="0px" y="0px"
	 viewBox="0 0 750 500" style="enable-background:new 0 0 750 500;" xml:space="preserve">
<style type="text/css">
	.st0{fill:#667490;}
	.st1{opacity:0.7;fill:#FFFFFF;enable-background:new    ;}
	.st2{fill:none;stroke:#263238;stroke-miterlimit:10;}
	.st3{opacity:0.3;}
	.st4{fill:none;stroke:#000000;stroke-linejoin:round;stroke-miterlimit:10;}
	.st5{opacity:0.2;enable-background:new    ;}
	.st6{opacity:0.2;}
	.st7{opacity:0.2;fill:none;stroke:#000000;stroke-linejoin:round;stroke-miterlimit:10;enable-background:new    ;}
	.st8{fill:none;stroke:#263238;stroke-linecap:round;stroke-miterlimit:10;}
	.st9{fill:#92E3A9;}
	.st10{opacity:0.3;fill:#263238;enable-background:new    ;}
	.st11{opacity:0.2;fill:#263238;enable-background:new    ;}
	.st12{fill:#263238;stroke:#263238;stroke-width:2;stroke-linecap:round;stroke-miterlimit:10;}
	.st13{fill:#FFFFFF;stroke:#263238;stroke-miterlimit:10;}
	.st14{fill:#263238;}
	.st15{fill:#056D8E;stroke:#000000;stroke-miterlimit:10;}
	.st16{fill:#AAB4B9;stroke:#0D0D0E;stroke-miterlimit:10;}
	.st17{fill:#FFFFFF;stroke:#667490;stroke-miterlimit:10;}
	.st18{fill:#263238;stroke:#263238;stroke-miterlimit:10;}
	.st19{fill:none;stroke:#6B6B6B;stroke-miterlimit:10;}
	.st20{fill:#B2B2B2;stroke:#263238;stroke-miterlimit:10;}
</style>
<g id="Background_Simple">
	<g>
		<path class="st0" d="M654.9,140c-20-30.2-45-56.6-77.5-74.1c-78.8-42.5-172.1-25.6-236.8,33.7c-24.4,22.3-41.5,51.3-65,74.6
			c-11.5,11.4-24.6,21.6-40,26.9c-26.5,9.2-57.6,0.6-85.1,2.9c-41.2,3.4-87.6,18.8-107.4,58c-20.8,41.1-17.5,95.4,3.5,135.7
			c3.3,6.4,17,32.2,25.7,32.2c0,0,603,0,603.2,0c2.4,0,9.7-17.8,10.6-19.6c8.5-17.5,15.3-35.8,20.2-54.6
			c14.9-57.6-0.8-117.4-25.8-169.8C673,170,664.6,154.6,654.9,140z"/>
		<path class="st1" d="M654.9,140c-20-30.2-45-56.6-77.5-74.1c-78.8-42.5-172.1-25.6-236.8,33.7c-24.4,22.3-41.5,51.3-65,74.6
			c-11.5,11.4-24.6,21.6-40,26.9c-26.5,9.2-57.6,0.6-85.1,2.9c-41.2,3.4-87.6,18.8-107.4,58c-20.8,41.1-17.5,95.4,3.5,135.7
			c3.3,6.4,17,32.2,25.7,32.2c0,0,603,0,603.2,0c2.4,0,9.7-17.8,10.6-19.6c8.5-17.5,15.3-35.8,20.2-54.6
			c14.9-57.6-0.8-117.4-25.8-169.8C673,170,664.6,154.6,654.9,140z"/>
	</g>
</g>
<g id="Floor">
	<g>
		<line class="st2" x1="102.5" y1="429.8" x2="694.8" y2="429.8"/>
		<line class="st2" x1="52.1" y1="429.8" x2="95.9" y2="429.8"/>
	</g>
</g>
<g id="Pictures">
	<g class="st3">
		<rect x="446.8" y="54.6" class="st4" width="89.2" height="119.8"/>
		<rect x="464.8" y="78.7" class="st4" width="53.3" height="71.6"/>
	</g>
	<g class="st3">
		<rect x="560.8" y="66.9" class="st4" width="53.3" height="71.6"/>
		<rect x="571.5" y="81.3" class="st4" width="31.9" height="42.8"/>
	</g>
</g>
<g id="Window">
	<g>
		<path class="st5" d="M339.3,46.5c-2,0-3.7,1.3-4.3,3.1H110.7c-0.6-1.8-2.3-3.1-4.3-3.1c-2.5,0-4.6,2-4.6,4.6
			c0,2.5,2.1,4.6,4.6,4.6c2,0,3.7-1.3,4.3-3.1H335c0.6,1.8,2.3,3.1,4.3,3.1c2.5,0,4.6-2,4.6-4.6C343.9,48.5,341.8,46.5,339.3,46.5z"
			/>
		<g class="st6">
			<path class="st4" d="M163.8,53.3c3.2,77.7,6,156.2,9.3,233.7l-0.3,15.2c0,0-14.4,0-21.9,0.8c-7.6,0.8-19.3,0.8-27.6,0.8
				s-12.9-3-12.9-3l0.5-13.7c1.7-77.4,3.5-155.9,4.7-233.6"/>
			<line class="st4" x1="127.9" y1="274.2" x2="127.9" y2="283.3"/>
			<line class="st4" x1="128.7" y1="95.8" x2="128" y2="266"/>
			<line class="st4" x1="128.9" y1="51.6" x2="128.8" y2="90.8"/>
			<line class="st4" x1="141.8" y1="141" x2="140.1" y2="254.4"/>
			<line class="st4" x1="143.1" y1="52.6" x2="141.9" y2="133.9"/>
			<line class="st4" x1="153.9" y1="172.6" x2="154.3" y2="277.7"/>
			<line class="st4" x1="153.5" y1="97.9" x2="153.8" y2="163.9"/>
			<line class="st4" x1="153.3" y1="53.7" x2="153.5" y2="89.7"/>
		</g>
		<g class="st6">
			<path class="st4" d="M279.8,53.3c-3.1,82.3-7,165.4-9.9,247.3c0,0,9.8,1.5,16.1,1.5s7.6,0,14.5,0s10.7,0,17.6,0
				c6.9,0,14.9-1.5,14.9-1.5c-1.5-81.8-2.4-164.9-5-247.3"/>
			<line class="st4" x1="315.6" y1="274.2" x2="315.6" y2="283.3"/>
			<line class="st4" x1="314.8" y1="95.8" x2="315.6" y2="266"/>
			<line class="st4" x1="314.6" y1="51.6" x2="314.8" y2="90.8"/>
			<line class="st4" x1="301.7" y1="141" x2="303.5" y2="254.4"/>
			<line class="st4" x1="300.4" y1="52.6" x2="301.6" y2="133.9"/>
			<line class="st4" x1="289.7" y1="172.6" x2="289.2" y2="277.7"/>
			<line class="st4" x1="290" y1="97.9" x2="289.7" y2="163.9"/>
			<line class="st4" x1="290.2" y1="53.7" x2="290.1" y2="89.7"/>
		</g>
		<g class="st6">
			<polyline class="st4" points="165.2,75.4 187.8,75.4 187.8,101.8 166.7,101.8 			"/>
			<rect x="191.7" y="75.5" class="st4" width="23.6" height="26.4"/>
		</g>
		<g class="st6">
			<polyline class="st4" points="278.7,75.4 256.1,75.4 256.1,101.8 277.2,101.8 			"/>
			<rect x="228.6" y="75.5" class="st4" width="23.6" height="26.4"/>
		</g>
		<polyline class="st7" points="168.9,195.1 215.9,195.1 215.9,116.1 166.9,116.1 		"/>
		<polyline class="st7" points="276.3,115.5 228.3,115.5 228.3,195.1 272.7,195.1 		"/>
		<polyline class="st7" points="170.5,213.8 215.9,213.8 215.9,293.1 173.9,293.1 		"/>
		<polyline class="st7" points="273.2,213.1 228.3,213.1 228.3,293.9 269.2,293.9 		"/>
		<line class="st7" x1="173.7" y1="298.9" x2="269.9" y2="298.9"/>
		<line class="st7" x1="165" y1="66.3" x2="278.6" y2="66.3"/>
		<line class="st7" x1="222.1" y1="66.8" x2="222.1" y2="297.8"/>
		<line class="st7" x1="166.5" y1="110" x2="277" y2="110"/>
	</g>
</g>
<g id="Plant">
	<g>
		<path class="st8" d="M644.7,225.3c0,0-11.7-6.5-12.6,8.2c-0.9,14.8-3,158.2-3,158.2"/>
		<path class="st8" d="M626,234.8c0,0,9.6,68.7,5.2,155.5"/>
		<g>
			<path class="st9" d="M635.4,228.3c0,0-4.5,2.9-7-0.4s1.7-9.3-2-11.9c-3.8-2.6-10.3,1.4-10.3,1.4s5,1.5,4.8,4.2s-2.6,3.8-2.9,2.6
				c-0.3-1.2-2.7-7.2-6.8-4.7c-4.1,2.5-4.7,6.4-4.7,6.4s9.5-1,10,2.6s-3.9-0.6-7.8-0.9c-3.9-0.2-7.5,0.3-7.2,2.7
				c0.2,2.4-0.4,6.3-0.4,6.3s3.3-2.9,7.6-2.7s4.1,3,0.2,2.8c-3.9-0.2-7.3,3.5-7.3,3.5s3.6,6.1,8.1,9.1s6.2,1.9,6.7-0.4
				c0.5-2.3-0.7-8.3,2-8.1s-4.5,10.3-1,10.9c3.5,0.6,6.3-0.4,7.2-2.7s0.9-2.3,0.9-2.3s-1.2-6-0.7-8.3c0.5-2.3,1.2,0.1,1.8,2.9
				s1,9.5,2.2,9.1c1.2-0.3,5-5.2,5.9-7.1c0.9-1.9-5-7.8-5-8.9s4.7,1.1,5.4,2.3c0.7,1.2,1.4,2.8,1.4,2.8s2.8-1.8,2.8-7.3
				C639.4,226.5,635.4,228.3,635.4,228.3z"/>
			<path class="st10" d="M635.4,228.3c0,0-4.5,2.9-7-0.4s1.7-9.3-2-11.9c-3.8-2.6-10.3,1.4-10.3,1.4s5,1.5,4.8,4.2s-2.6,3.8-2.9,2.6
				c-0.3-1.2-2.7-7.2-6.8-4.7c-4.1,2.5-4.7,6.4-4.7,6.4s9.5-1,10,2.6s-3.9-0.6-7.8-0.9c-3.9-0.2-7.5,0.3-7.2,2.7
				c0.2,2.4-0.4,6.3-0.4,6.3s3.3-2.9,7.6-2.7s4.1,3,0.2,2.8c-3.9-0.2-7.3,3.5-7.3,3.5s3.6,6.1,8.1,9.1s6.2,1.9,6.7-0.4
				c0.5-2.3-0.7-8.3,2-8.1s-4.5,10.3-1,10.9c3.5,0.6,6.3-0.4,7.2-2.7s0.9-2.3,0.9-2.3s-1.2-6-0.7-8.3c0.5-2.3,1.2,0.1,1.8,2.9
				s1,9.5,2.2,9.1c1.2-0.3,5-5.2,5.9-7.1c0.9-1.9-5-7.8-5-8.9s4.7,1.1,5.4,2.3c0.7,1.2,1.4,2.8,1.4,2.8s2.8-1.8,2.8-7.3
				C639.4,226.5,635.4,228.3,635.4,228.3z"/>
			<path class="st8" d="M612.7,241.1c2.9-3.6,7.2-8.5,10.8-10.8"/>
			<path class="st8" d="M609.3,245.6c0,0,0.8-1,2-2.6"/>
			<path class="st8" d="M625.4,231.2c0,0,4.3,6.1,5.2,12.5"/>
			<path class="st8" d="M620.5,234.8c0,0,1.2-0.7,0.8,7.1"/>
			<path class="st8" d="M623.7,227.6c0,0,2.5-2.2,1.2-6.6"/>
			<line class="st8" x1="620.3" y1="231.3" x2="618.5" y2="228.1"/>
			<path class="st8" d="M616.6,234.6c0,0-5.6-4.3-9.2-4.5"/>
		</g>
		<g>
			<path class="st9" d="M651.4,216.7c0,0-0.2,6.4-5.2,6.8s-8.2-8.1-13.3-6.1c-5.2,2-5.7,11.2-5.7,11.2s4.9-4,7.5-2s2,5.1,0.6,4.7
				c-1.4-0.5-9.1-2.2-9.3,3.6c-0.3,5.8,3.2,9.1,3.2,9.1s5.5-10.2,9.4-8.3c4,1.9-3.3,3.5-6.2,7.2c-2.9,3.8-4.8,7.7-2.2,9.1
				s6,4.6,6,4.6s-0.7-5.3,2.5-9.5c3.2-4.1,5.8-2.1,2.9,1.6s-1.5,9.7-1.5,9.7s8.5,0.6,14.6-1.9c6.1-2.5,6.1-4.9,4.2-7
				c-2-2.1-8.8-4.9-6.7-7.6s7.2,11.6,10.2,8.5c3-3.1,3.9-6.6,2.2-9.1c-1.7-2.5-1.7-2.5-1.7-2.5s-6.8-2.8-8.8-4.9
				c-2-2.1,0.9-1.1,4.1,0.1s10.2,5.4,10.7,4s-1.8-8.6-3.1-10.8c-1.3-2.2-11.2-0.2-12.3-1.1s4.2-3.9,5.9-3.8c1.7,0.1,3.8,0.5,3.8,0.5
				s0.2-4.1-5.4-7.8C652.4,211.5,651.4,216.7,651.4,216.7z"/>
			<path class="st11" d="M651.4,216.7c0,0-0.2,6.4-5.2,6.8s-8.2-8.1-13.3-6.1c-5.2,2-5.7,11.2-5.7,11.2s4.9-4,7.5-2s2,5.1,0.6,4.7
				c-1.4-0.5-9.1-2.2-9.3,3.6c-0.3,5.8,3.2,9.1,3.2,9.1s5.5-10.2,9.4-8.3c4,1.9-3.3,3.5-6.2,7.2c-2.9,3.8-4.8,7.7-2.2,9.1
				s6,4.6,6,4.6s-0.7-5.3,2.5-9.5c3.2-4.1,5.8-2.1,2.9,1.6s-1.5,9.7-1.5,9.7s8.5,0.6,14.6-1.9c6.1-2.5,6.1-4.9,4.2-7
				c-2-2.1-8.8-4.9-6.7-7.6s7.2,11.6,10.2,8.5c3-3.1,3.9-6.6,2.2-9.1c-1.7-2.5-1.7-2.5-1.7-2.5s-6.8-2.8-8.8-4.9
				c-2-2.1,0.9-1.1,4.1,0.1s10.2,5.4,10.7,4s-1.8-8.6-3.1-10.8c-1.3-2.2-11.2-0.2-12.3-1.1s4.2-3.9,5.9-3.8c1.7,0.1,3.8,0.5,3.8,0.5
				s0.2-4.1-5.4-7.8C652.4,211.5,651.4,216.7,651.4,216.7z"/>
			<path class="st8" d="M648.8,248.2c-1.6-5.4-3.6-13-3.5-18.2"/>
			<path class="st8" d="M650.9,254.6c0,0-0.5-1.5-1.3-3.8"/>
			<path class="st8" d="M647.5,228.7c0,0,9.1-0.2,16,3.3"/>
			<path class="st8" d="M647.8,236.1c0,0,0.1-1.7,7.6,4.1"/>
			<path class="st8" d="M642.7,227.9c0,0-0.5-4-5.8-5.7"/>
			<line class="st8" x1="644.1" y1="233.9" x2="639.7" y2="233.4"/>
			<path class="st8" d="M644.9,239.8c0,0-8.1,2.7-10.7,6.1"/>
		</g>
		<path class="st8" d="M597.3,259.6c0,0,28,22.8,25.2,129.9"/>
		<g>
			<path class="st9" d="M628.9,255.1c0,0-0.8,7.4-6.7,7.3c-5.8-0.1-8.6-10.1-14.8-8.2s-7.6,12.4-7.6,12.4s6-4.2,8.9-1.6
				c2.8,2.6,1.8,6.1,0.3,5.4c-1.6-0.7-10.3-3.4-11.1,3.2s2.8,10.8,2.8,10.8s7.2-11.2,11.6-8.7c4.4,2.5-4.1,3.7-7.8,7.8
				s-6.2,8.5-3.4,10.3s6.5,5.9,6.5,5.9s-0.3-6.2,3.8-10.7c4.1-4.5,6.9-1.9,3.2,2.2c-3.7,4.1-2.6,11-2.6,11s9.8,1.5,17.1-0.8
				s7.5-5,5.5-7.6s-9.6-6.5-7-9.4c2.6-2.8,7.3,14,11,10.8c3.7-3.3,5.1-7.2,3.4-10.3c-1.7-3-1.7-3-1.7-3s-7.6-3.9-9.6-6.5
				s1.1-1.2,4.7,0.6c3.6,1.8,11.2,7.2,11.9,5.7s-1.2-10-2.5-12.7s-12.9-1.3-14.1-2.4c-1.2-1.1,5.2-4.1,7.2-3.8c2,0.3,4.3,1,4.3,1
				s0.6-4.7-5.5-9.5C630.6,249.2,628.9,255.1,628.9,255.1z"/>
			<path class="st10" d="M628.9,255.1c0,0-0.8,7.4-6.7,7.3c-5.8-0.1-8.6-10.1-14.8-8.2s-7.6,12.4-7.6,12.4s6-4.2,8.9-1.6
				c2.8,2.6,1.8,6.1,0.3,5.4c-1.6-0.7-10.3-3.4-11.1,3.2s2.8,10.8,2.8,10.8s7.2-11.2,11.6-8.7c4.4,2.5-4.1,3.7-7.8,7.8
				s-6.2,8.5-3.4,10.3s6.5,5.9,6.5,5.9s-0.3-6.2,3.8-10.7c4.1-4.5,6.9-1.9,3.2,2.2c-3.7,4.1-2.6,11-2.6,11s9.8,1.5,17.1-0.8
				s7.5-5,5.5-7.6s-9.6-6.5-7-9.4c2.6-2.8,7.3,14,11,10.8c3.7-3.3,5.1-7.2,3.4-10.3c-1.7-3-1.7-3-1.7-3s-7.6-3.9-9.6-6.5
				s1.1-1.2,4.7,0.6c3.6,1.8,11.2,7.2,11.9,5.7s-1.2-10-2.5-12.7s-12.9-1.3-14.1-2.4c-1.2-1.1,5.2-4.1,7.2-3.8c2,0.3,4.3,1,4.3,1
				s0.6-4.7-5.5-9.5C630.6,249.2,628.9,255.1,628.9,255.1z"/>
			<path class="st8" d="M623,291.3c-1.4-6.4-2.9-15.4-2.3-21.4"/>
			<path class="st8" d="M624.8,298.9c0,0-0.5-1.7-1.1-4.5"/>
			<path class="st8" d="M623.3,268.6c0,0,10.5,0.7,18.1,5.4"/>
			<path class="st8" d="M623,277.2c0,0,0.3-2,8.4,5.4"/>
			<path class="st8" d="M617.8,267.3c0,0-0.2-4.7-6.2-7.1"/>
			<line class="st8" x1="619" y1="274.3" x2="613.8" y2="273.3"/>
			<path class="st8" d="M619.3,281.2c0,0-9.6,2.4-12.9,6"/>
		</g>
		<g>
			<path class="st9" d="M628.9,327.5c0,0-0.8,7.4-6.7,7.3c-5.8-0.1-8.6-10.1-14.8-8.2s-7.6,12.4-7.6,12.4s6-4.2,8.9-1.6
				c2.8,2.6,1.8,6.1,0.3,5.4c-1.6-0.7-10.3-3.4-11.1,3.2s2.8,10.8,2.8,10.8s7.2-11.2,11.6-8.7c4.4,2.5-4.1,3.7-7.8,7.8
				s-6.2,8.5-3.4,10.3s6.5,5.9,6.5,5.9s-0.3-6.2,3.8-10.7c4.1-4.5,6.9-1.9,3.2,2.2c-3.7,4.1-2.6,11-2.6,11s9.8,1.5,17.1-0.8
				s7.5-5,5.5-7.6s-9.6-6.5-7-9.4c2.6-2.8,7.3,14,11,10.8c3.7-3.3,5.1-7.2,3.4-10.3c-1.7-3-1.7-3-1.7-3s-7.6-3.9-9.6-6.5
				s1.1-1.2,4.7,0.6c3.6,1.8,11.2,7.2,11.9,5.7s-1.2-10-2.5-12.7s-12.9-1.3-14.1-2.4c-1.2-1.1,5.2-4.1,7.2-3.8c2,0.3,4.3,1,4.3,1
				s0.6-4.7-5.5-9.5C630.6,321.6,628.9,327.5,628.9,327.5z"/>
			<path class="st10" d="M628.9,327.5c0,0-0.8,7.4-6.7,7.3c-5.8-0.1-8.6-10.1-14.8-8.2s-7.6,12.4-7.6,12.4s6-4.2,8.9-1.6
				c2.8,2.6,1.8,6.1,0.3,5.4c-1.6-0.7-10.3-3.4-11.1,3.2s2.8,10.8,2.8,10.8s7.2-11.2,11.6-8.7c4.4,2.5-4.1,3.7-7.8,7.8
				s-6.2,8.5-3.4,10.3s6.5,5.9,6.5,5.9s-0.3-6.2,3.8-10.7c4.1-4.5,6.9-1.9,3.2,2.2c-3.7,4.1-2.6,11-2.6,11s9.8,1.5,17.1-0.8
				s7.5-5,5.5-7.6s-9.6-6.5-7-9.4c2.6-2.8,7.3,14,11,10.8c3.7-3.3,5.1-7.2,3.4-10.3c-1.7-3-1.7-3-1.7-3s-7.6-3.9-9.6-6.5
				s1.1-1.2,4.7,0.6c3.6,1.8,11.2,7.2,11.9,5.7s-1.2-10-2.5-12.7s-12.9-1.3-14.1-2.4c-1.2-1.1,5.2-4.1,7.2-3.8c2,0.3,4.3,1,4.3,1
				s0.6-4.7-5.5-9.5C630.6,321.6,628.9,327.5,628.9,327.5z"/>
			<path class="st8" d="M623,363.6c-1.4-6.4-2.9-15.4-2.3-21.4"/>
			<path class="st8" d="M624.8,371.2c0,0-0.5-1.7-1.1-4.5"/>
			<path class="st8" d="M623.3,341c0,0,10.5,0.7,18.1,5.4"/>
			<path class="st8" d="M623,349.5c0,0,0.3-2,8.4,5.4"/>
			<path class="st8" d="M617.8,339.6c0,0-0.2-4.7-6.2-7.1"/>
			<line class="st8" x1="619" y1="346.6" x2="613.8" y2="345.7"/>
			<path class="st8" d="M619.3,353.6c0,0-9.6,2.4-12.9,6"/>
		</g>
		<path class="st8" d="M607.3,311.3c0,0,16.5,60,18.2,78.7L622.1,280"/>
		<path class="st8" d="M647.3,302.2c-21.7-3.9-21.7,87.8-21.7,87.8"/>
		<path class="st8" d="M628.2,389.5c0,0-12.6-139,23.9-139"/>
		<g>
			<path class="st9" d="M639,299.5c-3-3.3-9.3-3.3-13,5.2c-3.7,8.5-0.4,7-0.4,7s7-2.2,11.5-3.7c4.5-1.5,10.4-5.2,10.8-3
				s-3,4.5-7,5.2c-4.1,0.7-14.8,3.7-13.7,5.9c1.1,2.2,3.7,8.9,3.7,8.9s5.2-4.5,10-7.4s7.8-1.9,5.2,1.5c-2.6,3.3-10,7-8.5,11.5
				c1.5,4.5,10.4,10,10.4,10s1.1-9.3,3.7-12.2c2.6-3,2.6,0.4,1.8,5.6c-0.7,5.2-0.7,6.7-0.7,6.7l10.4,3.7c0,0,3.7-5.6,5.6-7.4
				c1.8-1.9,1.8-1.9,1.8-1.9s-8.2-7-8.5-11.5c-0.4-4.5,5.6,0,7.4,0.7c1.8,0.7,4.8,5.9,4.8,5.9s1.8-8.5,2.2-11.5c0.4-3,0.4-3,0.4-3
				s-7.8-3-10.8-3c-3,0-4.5,2.2-4.5-0.7c0-3,3-4.8,6.3-4.5c3.3,0.4,8.9,2.2,8.9,2.2s2.2-1.9,1.5-7.4c-0.7-5.6-2.6-5.6-7-4.1
				c-4.5,1.5-7.4,4.8-10.8,4.8c-3.3,0-1.5-4.1,0.7-5.2c2.2-1.1,7.8-3.3,8.9-3.7c1.1-0.4-5.9-5.6-9.6-6.3s-8.5,1.9-8.2,5.6
				C653.1,301.4,642,302.9,639,299.5z"/>
			<path class="st8" d="M662.9,337.7c0.1,1.1,0.2,2.2,0.2,3.4"/>
			<path class="st8" d="M655.4,311.1c2.6,6,5.6,14.3,7,23"/>
			<path class="st8" d="M654.1,308.1c-1.8-4-3.2-6.4-3.2-6.4s3.3-1.5,4.8-4.5s3.7-4.5,3.7-4.5"/>
			<path class="st8" d="M637.9,314.4c0,0,13.3-5.6,13.3-4.5"/>
			<path class="st8" d="M658.7,307.3c0,0,5.9-3,11.1-3"/>
			<path class="st8" d="M656.4,316.2c0,0-3.3,2.6-7,7c-3.7,4.5-5.2,8.5-5.2,8.5"/>
			<path class="st8" d="M660.5,317.7c0,0,7.8-2.2,11.9,1.5"/>
		</g>
		<g>
			<path class="st9" d="M674.6,267.6c-4-2.4-8.5-2.4-10.7-5s2.1-3.8,4.4-2.8s7.6,3.7,8.6,4.3s0.3-8.1-1.6-11.4
				c-1.9-3.3-7-5.2-9.5-2.5c-5.4,5.7-13.8-1.8-13.2-6.2c0.6-4.4-3.6-9.2-12.4-6.4c-8.9,2.8-5.6,4.3-5.6,4.3s6.3,3.9,10.3,6.2
				c4,2.4,10.7,4.4,9.3,6.2c-1.4,1.7-5.3,0.7-8.5-1.9c-3.2-2.6-12.5-8.8-13.5-6.5c-1,2.3-4.3,8.6-4.3,8.6s6.8,1,12.2,2.7
				c5.4,1.7,6.5,4.7,2.3,4.9s-11.9-2.9-14.3,1.1s-0.8,14.4-0.8,14.4s7.7-5.2,11.7-5.2s1.4,2.2-3,5c-4.4,2.8-5.5,3.8-5.5,3.8l4,10.3
				c0,0,6.6-0.9,9.2-0.7c2.6,0.2,2.6,0.2,2.6,0.2s0-10.8,3.1-14c3.1-3.2,3.7,4.2,4.3,6.1c0.7,1.9-1.3,7.5-1.3,7.5s7.7-4.2,10.1-5.9
				c2.5-1.7,2.5-1.7,2.5-1.7s-2.9-7.8-4.8-10.1c-1.9-2.2-4.6-1.9-2.4-3.9c2.2-1.9,5.6-0.9,7.5,1.8s4.2,8.2,4.2,8.2s2.9,0.5,6.6-3.7
				S678.7,270,674.6,267.6z M639.5,279.5c-3-1.5,4.1-4.5,4.1-4.5C646.2,274.6,642.5,281,639.5,279.5z M644.5,265.6
				c-1.3-0.6,2.5-1.9,2.5-1.9C652.5,264.8,645.8,266.2,644.5,265.6z"/>
			<path class="st8" d="M639.5,287c-0.8,0.8-1.6,1.6-2.4,2.4"/>
			<path class="st8" d="M654.7,263.9c-2.8,5.9-7.1,13.6-12.8,20.3"/>
			<path class="st8" d="M656,261c1.8-4,2.7-6.6,2.7-6.6s3.3,1.6,6.5,0.7c3.2-0.8,5.8-0.1,5.8-0.1"/>
			<path class="st8" d="M640.7,252.9c0,0,13,6.4,12.1,7.2"/>
			<path class="st8" d="M659.6,263.9c0,0,6.1,2.5,9.5,6.5"/>
			<path class="st8" d="M651.5,268.1c0,0-4.2-0.8-9.9-0.7s-9.8,1.7-9.8,1.7"/>
			<path class="st8" d="M653,272.1c0,0,6.8,4.4,6.7,9.9"/>
		</g>
		<g>
			<path class="st9" d="M617,319c-3.2-1.9-6.8-2-8.6-4c-1.8-2,1.7-3,3.5-2.3c1.8,0.8,6.1,3,7,3.5s0.2-6.5-1.3-9.2
				c-1.5-2.6-5.6-4.2-7.7-2c-4.3,4.6-11.1-1.4-10.7-5c0.5-3.6-2.9-7.4-10-5.1c-7.1,2.2-4.5,3.5-4.5,3.5s5.1,3.1,8.3,5s8.6,3.6,7.5,5
				c-1.2,1.4-4.3,0.5-6.9-1.5c-2.6-2.1-10.1-7.1-10.8-5.2c-0.8,1.9-3.5,7-3.5,7s5.4,0.8,9.8,2.2c4.3,1.4,5.2,3.8,1.8,3.9
				c-3.4,0.2-9.6-2.4-11.5,0.9s-0.6,11.6-0.6,11.6s6.2-4.2,9.4-4.2c3.2,0,1.1,1.8-2.4,4.1c-3.5,2.3-4.5,3.1-4.5,3.1l3.2,8.3
				c0,0,5.3-0.7,7.4-0.5s2.1,0.1,2.1,0.1s0-8.7,2.5-11.2c2.5-2.6,2.9,3.4,3.5,4.9s-1.1,6.1-1.1,6.1s6.2-3.4,8.2-4.7s2-1.3,2-1.3
				s-2.3-6.3-3.9-8.1c-1.6-1.8-3.7-1.5-1.9-3.1c1.8-1.6,4.5-0.7,6,1.5c1.5,2.2,3.3,6.6,3.3,6.6s2.3,0.4,5.3-3
				C621.2,322,620.3,320.9,617,319z M588.8,328.5c-2.4-1.2,3.3-3.6,3.3-3.6C594.1,324.6,591.2,329.7,588.8,328.5z M592.8,317.4
				c-1-0.5,2-1.5,2-1.5C599.2,316.7,593.8,317.9,592.8,317.4z"/>
			<path class="st8" d="M588.7,334.6c-0.6,0.7-1.3,1.3-1.9,1.9"/>
			<path class="st8" d="M601,316c-2.3,4.8-5.7,11-10.3,16.4"/>
			<path class="st8" d="M602.1,313.6c1.4-3.2,2.2-5.3,2.2-5.3s2.7,1.2,5.2,0.6c2.6-0.7,4.7-0.1,4.7-0.1"/>
			<path class="st8" d="M589.7,307.1c0,0,10.4,5.2,9.8,5.8"/>
			<path class="st8" d="M605,316c0,0,4.9,2,7.7,5.2"/>
			<path class="st8" d="M598.4,319.4c0,0-3.3-0.7-8-0.6c-4.7,0.1-7.9,1.3-7.9,1.3"/>
			<path class="st8" d="M599.6,322.6c0,0,5.5,3.6,5.4,8"/>
		</g>
		<g>
			<path class="st9" d="M648.4,359c-3.2-1.9-6.8-2-8.6-4c-1.8-2,1.7-3,3.5-2.3c1.8,0.8,6.1,3,7,3.5s0.2-6.5-1.3-9.2
				c-1.5-2.6-5.6-4.2-7.7-2c-4.3,4.6-11.1-1.4-10.7-5c0.5-3.6-2.9-7.4-10-5.1c-7.1,2.2-4.5,3.5-4.5,3.5s5.1,3.1,8.3,5s8.6,3.6,7.5,5
				c-1.2,1.4-4.3,0.5-6.9-1.5c-2.6-2.1-10.1-7.1-10.8-5.2c-0.8,1.9-3.5,7-3.5,7s5.4,0.8,9.8,2.2c4.3,1.4,5.2,3.8,1.8,3.9
				c-3.4,0.2-9.6-2.4-11.5,0.9s-0.6,11.6-0.6,11.6s6.2-4.2,9.4-4.2s1.1,1.8-2.4,4.1c-3.5,2.3-4.5,3.1-4.5,3.1l3.2,8.3
				c0,0,5.3-0.7,7.4-0.5s2.1,0.1,2.1,0.1s0-8.7,2.5-11.2c2.5-2.6,2.9,3.4,3.5,4.9s-1.1,6.1-1.1,6.1s6.2-3.4,8.2-4.7s2-1.3,2-1.3
				s-2.3-6.3-3.9-8.1c-1.6-1.8-3.7-1.5-1.9-3.1c1.8-1.6,4.5-0.7,6,1.5s3.3,6.6,3.3,6.6s2.3,0.4,5.3-3
				C652.7,362,651.7,360.9,648.4,359z M620.2,368.5c-2.4-1.2,3.3-3.6,3.3-3.6C625.6,364.7,622.6,369.7,620.2,368.5z M624.2,357.4
				c-1-0.5,2-1.5,2-1.5C630.7,356.7,625.2,357.9,624.2,357.4z"/>
			<path class="st8" d="M620.1,374.6c-0.6,0.7-1.3,1.3-1.9,1.9"/>
			<path class="st8" d="M632.4,356c-2.3,4.8-5.7,11-10.3,16.4"/>
			<path class="st8" d="M633.5,353.7c1.4-3.2,2.2-5.3,2.2-5.3s2.7,1.2,5.2,0.6c2.6-0.7,4.7-0.1,4.7-0.1"/>
			<path class="st8" d="M621.1,347.1c0,0,10.4,5.2,9.8,5.8"/>
			<path class="st8" d="M636.4,356c0,0,4.9,2,7.7,5.2"/>
			<path class="st8" d="M629.8,359.4c0,0-3.3-0.7-8-0.6c-4.7,0.1-7.9,1.3-7.9,1.3"/>
			<path class="st8" d="M631,362.6c0,0,5.5,3.6,5.4,8"/>
		</g>
		<g>
			<path class="st9" d="M603.8,257.7c0,0-4.1,3-6.7,0c-2.6-3,1.1-8.9-2.6-11.1c-3.7-2.2-9.6,1.9-9.6,1.9s4.8,1.1,4.8,3.7
				s-2.2,3.7-2.6,2.6c-0.4-1.1-3-6.7-6.7-4.1c-3.7,2.6-4.1,6.3-4.1,6.3s8.9-1.5,9.6,1.9c0.7,3.3-3.7-0.4-7.4-0.4c-3.7,0-7,0.7-6.7,3
				c0.4,2.2,0,5.9,0,5.9s3-3,7-3c4.1,0,4.1,2.6,0.4,2.6s-6.7,3.7-6.7,3.7s3.7,5.6,8.2,8.2c4.5,2.6,5.9,1.5,6.3-0.7s-1.1-7.8,1.5-7.8
				s-3.7,10-0.4,10.4s5.9-0.7,6.7-3c0.7-2.2,0.7-2.2,0.7-2.2s-1.5-5.6-1.1-7.8c0.4-2.2,1.1,0,1.8,2.6s1.5,8.9,2.6,8.5
				c1.1-0.4,4.5-5.2,5.2-7s-5.2-7-5.2-8.2c0-1.1,4.5,0.7,5.2,1.9c0.7,1.1,1.5,2.6,1.5,2.6s2.6-1.9,2.2-7S603.8,257.7,603.8,257.7z"
				/>
			<path class="st8" d="M583,271.2c2.6-3.6,6.4-8.4,9.7-10.9"/>
			<path class="st8" d="M580,275.5c0,0,0.7-1,1.7-2.6"/>
			<path class="st8" d="M594.5,261.1c0,0,4.5,5.6,5.6,11.5"/>
			<path class="st8" d="M590,264.8c0,0,1.1-0.7,1.1,6.7"/>
			<path class="st8" d="M592.6,257.7c0,0,2.2-2.2,0.7-6.3"/>
			<line class="st8" x1="589.7" y1="261.5" x2="587.8" y2="258.5"/>
			<path class="st8" d="M586.3,264.8c0,0-5.6-3.7-8.9-3.7"/>
		</g>
		<rect x="612.5" y="388.6" class="st12" width="28.7" height="41.3"/>
	</g>
</g>
<g id="Air">
	<g>
		<path class="st2" d="M375.5,185.9c2.8-2,5.7-4,11.3-4"/>
		<path class="st2" d="M311.5,188.3c1.9,0.9,4.2,1.6,7.4,1.6c11.3,0,11.3-8,22.6-8s11.3,8,22.6,8c4,0,6.6-1,8.7-2.3"/>
		<path class="st2" d="M296.2,181.9c5.7,0,8.5,2,11.3,4"/>
		<path class="st2" d="M330.2,199.1c2.8-2,5.7-4,11.3-4c11.3,0,11.3,8,22.6,8c11.3,0,11.3-8,22.6-8"/>
		<path class="st2" d="M296.2,195.1c11.3,0,11.3,8,22.6,8c3.8,0,6.3-0.9,8.4-2.1"/>
		<path class="st2" d="M356.6,216.1c1.9,1,4.3,1.6,7.6,1.6c11.3,0,11.3-8,22.6-8"/>
		<path class="st2" d="M296.2,209.7c11.3,0,11.3,8,22.6,8c11.3,0,11.3-8,22.6-8c5.5,0,8.3,1.9,11.1,3.8"/>
	</g>
</g>
<g id="Fan">
	<g>
		<rect x="234.6" y="307.1" class="st13" width="4.7" height="116.8"/>
		<g>
			<circle class="st13" cx="237" cy="191.6" r="47.4"/>
			<g>
				<g class="st6">
					<path d="M234,192.5c0,0-7.1,18.5-24.1,17.9c-17-0.6,0.1,15.8,16.6,17.2s19.2-28.8,16.1-35.2C239.3,185.8,234,192.5,234,192.5z"
						/>
					<path d="M240.2,193.9c0,0,19.5-3.5,27.8,11.4s13.4-8.3,6.1-23.1s-34.6-1.5-38.5,4.6C231.7,192.8,240.2,193.9,240.2,193.9z"/>
					<path d="M236.2,189.9c0,0-13.7-14.2-6-29.4c7.7-15.1-14.4-6.5-22.6,7.8c-8.2,14.4,18,29.6,25.2,29.4
						C240.1,197.6,236.2,189.9,236.2,189.9z"/>
				</g>
				<g class="st6">
					<path d="M245.6,194.1c0,0,19.4-3.7,27.9,11s13.3-8.5,5.8-23.2c-7.5-14.7-34.6-1.1-38.4,5C237.1,193.1,245.6,194.1,245.6,194.1z
						"/>
					<path d="M243.4,188.1c0,0-13.3-14.7-5.1-29.6s-14.1-7-22.8,7.1s17,30.1,24.2,30.2C247,195.9,243.4,188.1,243.4,188.1z"/>
					<path d="M242.2,193.6c0,0-4.8,19.2-21.8,20.7s2.1,15.6,18.6,15c16.5-0.6,15.6-30.9,11.6-37
						C246.7,186.3,242.2,193.6,242.2,193.6z"/>
				</g>
				<g>
					<path class="st14" d="M234.6,189.6c0,0-19.4,3.8-28-10.9c-8.5-14.7-13.3,8.5-5.7,23.2s34.6,0.9,38.4-5.2
						S234.6,189.6,234.6,189.6z"/>
					<path class="st14" d="M236.7,195.6c0,0,13.3,14.6,5.2,29.6c-8.1,14.9,14.2,6.9,22.8-7.2c8.6-14.1-17.1-30.1-24.4-30.1
						C233.1,187.8,236.7,195.6,236.7,195.6z"/>
					<path class="st14" d="M237.9,190.1c0,0,4.7-19.2,21.6-20.8s-2.2-15.6-18.7-14.9c-16.5,0.7-15.4,31-11.4,37
						C233.5,197.4,237.9,190.1,237.9,190.1z"/>
				</g>
				<circle class="st13" cx="237.5" cy="191.4" r="11.5"/>
			</g>
		</g>
		<polygon class="st14" points="240.2,313.9 233.8,313.9 230.5,275.8 230.5,238.4 243.4,238.4 243.4,276.2 		"/>
		<path class="st14" d="M268.3,422h-13.7c-0.9-3.2-3.9-5.6-7.4-5.6h-20.4c-3.5,0-6.5,2.4-7.4,5.6h-13.7c-4.3,0-7.7,3.5-7.7,7.7H276
			C276,425.5,272.5,422,268.3,422z"/>
		<circle class="st15" cx="237" cy="256.9" r="3.4"/>
		<circle class="st15" cx="237" cy="270.6" r="3.4"/>
		<circle class="st15" cx="237" cy="284.3" r="3.4"/>
	</g>
</g>
<g id="Character">
	<g>
		<g>
			<path class="st16" d="M560.7,227.2l-98.9,0.5l-9,202h78.6h17.5h11.3l7.5-191.4C568,232.2,564.9,227.2,560.7,227.2z"/>
			<path class="st16" d="M535.1,227.2l-86.6,0.4c-6.9,0-12.6,5.5-12.9,12.4l-8.4,189.7h78.6h17.5h11.3l7.5-191.4
				C542.4,232.2,539.2,227.2,535.1,227.2z"/>
		</g>
		<g>
			<path class="st16" d="M443.6,292.5h-13.7c-0.8,0-1.5,0.1-2.3,0.3h-82.9l-1,137h78.6h17.5h11.3V300
				C451.1,295.8,447.7,292.5,443.6,292.5z"/>
			<path class="st16" d="M349.9,429.8H321V300c0-4.2,3.4-7.5,7.5-7.5h13.7c4.2,0,7.5,3.4,7.5,7.5L349.9,429.8L349.9,429.8z"/>
		</g>
		<g>
			<path class="st13" d="M424.9,250.9c0,0,3.1-3.6,3.3-6.8c0.3-3.2-1.7-10.6-0.6-13.9s4.5-5.2,3.2-7.6c-1.3-2.4-4-1-5.9,2.2
				c-1.9,3.2-1.8,6.2-2.2,9.3s-4.2,5.5-7.5,3.9c-3.3-1.5-7.6-4.1-7.6-4.1s-1.5,5-1.5,7c0,2,1.4,7,2.8,10.2c1.4,3.2,2.2,6.8,2.2,6.8
				s-3.1,25.5-3.4,30.7c-0.4,5.2-1.5,11.1-1.5,11.1s5.1,3.8,8.4,0.6c3.3-3.2,13.4-26,13.4-26L424.9,250.9z"/>
			<polygon class="st13" points="422.3,249.1 407.4,249.1 404,215.7 425.8,215.7 			"/>
			<polygon class="st15" points="406.2,223.8 408.6,246.6 421.2,246.6 423.5,223.8 			"/>
			<path class="st13" d="M402.6,232.1c0,0-2-2-0.6-4.6c1.4-2.6,10.4-7.8,9.8-4.3C411.2,226.7,402.6,232.1,402.6,232.1z"/>
			<path class="st13" d="M404.1,236.5c0,0-2-2-0.6-4.6c1.4-2.6,10.4-7.8,9.8-4.3C412.7,231,404.1,236.5,404.1,236.5z"/>
			<path class="st13" d="M404.7,240.4c0,0-1.8-1.7-0.5-3.9s9-6.7,8.5-3.7C412.2,235.7,404.7,240.4,404.7,240.4z"/>
			<path class="st13" d="M406.3,243.7c0,0-1.6-1.7-0.5-3.9s8.1-6.7,7.6-3.7C413,239,406.3,243.7,406.3,243.7z"/>
		</g>
		<g>
			<rect x="350.9" y="351.1" class="st16" width="68" height="34.3"/>
			<rect x="350.9" y="385.5" class="st16" width="68" height="44.3"/>
		</g>
		<g>
			<g>
				<g>
					<path class="st17" d="M334.7,399.6c0,0-1.7,7.2-4.5,11.7c-2.8,4.5-9.3,13-15.1,15.8c-5.8,2.8,5.1,7.5,12.7,7.2
						s14.4-1.4,22.7-9.3s17.2-7.5,17.9-13c0.7-5.5-6.5-14.4-6.5-14.4L334.7,399.6z"/>
					<path class="st13" d="M327.9,434.2c7.5-0.3,14.4-1.4,22.7-9.3s17.2-7.5,17.9-13c0.2-1.4-0.2-3-0.8-4.7c-2.4,0.7-6.6,2.3-11.6,6
						c-7.9,5.8-11.7,13.4-25.1,16.5c-13.4,3.1-15.8-2.8-15.8-2.8C309.3,429.8,320.3,434.6,327.9,434.2z"/>
				</g>
				<path class="st18" d="M406.1,299.7c0,0-19.1-8.6-45.6-9.7s-53.2,2.1-53.9,8.9s20.3,79,22.3,84.8c2.1,5.8,4.8,8.2,3.4,10.3
					c-1.4,2.1-3.8,3.4-2.8,5.1s-1.7,0.3,1,1.7c2.8,1.4,25.1,1.7,25.1,1.7s6.2,0,6.9-1.7s0.7-5.5,0-8.9c-0.7-3.4-3.8-3.8-2.8-7.2
					s-4.1-18.5-4.5-20.6s-9.6-38.5-9.6-38.5s49.8,10.6,61.5,14.8s42.2,4.5,46.4,1s5.5-8.6,5.1-10.3s-41.5-26.8-41.5-26.8
					L406.1,299.7z"/>
				<g>
					<path class="st13" d="M276,405c0,0-16.8-3.1-22.3-7.2c-5.5-4.1-11-11.7-13.4-8.2c-2.4,3.4-2.4,15.1,5.5,27.5
						c7.9,12.4,22.3,21.3,24.7,19.9c2.4-1.4,17.9-12,17.9-12L276,405z"/>
					<path class="st17" d="M245.8,417.1c7.9,12.4,22.3,21.3,24.7,19.9c0.4-0.2,1.2-0.7,2.2-1.4c-7.8-5.7-23.8-17.9-26.9-24
						c-4.1-8.2-5.5-22-5.5-22C237.9,393,237.9,404.7,245.8,417.1z"/>
				</g>
				<g>
					<path class="st18" d="M405.5,310c0,0-68.3,16.5-72.4,21.3c-4.1,4.8-33.6,48.4-37.4,54.2c-3.8,5.8-8.6,11-10.3,12
						s-2.1-0.7-4.1,0.7c-2.1,1.4-7.5,5.8-7.5,5.8s3.8,15.8,8.9,19.9s5.8,4.8,8.2,3.4c2.4-1.4,4.1-1.7,5.5-4.1s-1-3.8,1.7-5.5
						s15.8-11,15.8-11s28.8-19.6,39.1-30.5c10.3-11,15.1-20.9,15.1-20.9s53.9-0.7,66.9-1.4c13-0.7,26.1-2.1,30.5-6.9
						s6.5-10.3,6.5-10.3l-49.4-28.5"/>
					<path class="st19" d="M323.9,343.4c0,0,8.1-13.6,15.7-17.9c7.6-4.3,61.8-13,61.8-13"/>
				</g>
			</g>
			<g>
				<path class="st20" d="M469.6,220.9c0,0-12.7,0.2-20.1,6.9s-19.3,37.7-23,42.8c-3.7,5.1-16.6,25.2-17.4,25.7
					c-0.7,0.5-6.4,0.5-6.4,0.5s-3.4,0.7,11.7,12c15.2,11.2,34.2,29.1,45,31.1s9.3,5.6,13.7-0.5c4.4-6.1,19.3-36.9,24.5-49.4
					c5.1-12.5,18.8-40.4,20.8-49.9c2-9.5,3.2-12-4.2-16.1c-2.5-1.4-14.8-8.2-18.5-8.8c-7.2-1.2-6,4.6-6,4.6L469.6,220.9z"/>
				<path class="st5" d="M489.9,219.6c5.1,1.5,9,2.8,10.9,7.1s-3.9,11.3-3.9,11.3s-9,12.1-12.5,17.6c-3.5,5.5-15.6,3.1-21.5,2.3
					c-5.9-0.8-12.5,7-18,1.2c-5.5-5.9,0.8-9.4,4.3-14.1s-0.4-3.5,0-7.8c0.4-4.3,5.1-5.5,12.6-9.5c7.5-4.1,3.8-5.7,3.8-5.7
					C468.4,220.4,484.8,218.1,489.9,219.6z M506.6,242.7c-1.6,0.8-9,5.5-9.8,10.9c-0.8,5.5,3.5,5.9,0,11.3
					c-3.5,5.5-5.5,7.8-2.7,12.9c2.7,5.1,9.4-2.7,18.4-12.9c9-10.1,11.7-13.7,7.8-19.1C516.4,240.4,506.6,242.7,506.6,242.7z"/>
				<path class="st2" d="M483.2,245.1c-2.5,2.8-4.4,4.8-4.4,4.8"/>
				<path class="st2" d="M497,221.6c0,0,0.5,1.2-2.7,8.3c-1.5,3.4-5.2,8.2-8.5,12.3"/>
				<path class="st2" d="M471.8,248c0,0-12,8.6-16.9,10.8"/>
				<g>
					<path class="st18" d="M487.3,230.6c0,0,11.3-6.2,12.7-10.5c1.4-4.2-7.9-4.5-9.9-3.1C488.2,218.4,487.3,230.6,487.3,230.6z"/>
					<path class="st13" d="M474.5,159.5c0,0-8.3,7.1-9,10.3c-0.7,3.2-0.2,6.1-2.9,8.8c-2.7,2.7-9.8,4.6-9.3,6.9
						c0.5,2.2,3.4,5.4,3.4,5.4s0,17.1,0.5,19.1s12.5,2.2,12.5,2.2l-1,11c0,0-19.6,20.1-12.2,24.2s17.6-5.1,27.2-13.7
						s10.3-8.3,11.2-11.2c1-2.9-0.2-2.2,0.5-4.9c0.7-2.7,0-4.9,2.7-10s4.6-3.2,6.4-13.9c1.7-10.8-2-19.6-8.3-27.2
						c-6.4-7.6-5.9-8.6-11.2-9.1C479.4,156.8,474.5,159.5,474.5,159.5z"/>
					<path class="st2" d="M466.9,179.3c0,0,3.4,2.4,6.4,0.7"/>
					<path class="st2" d="M468.3,171.9c0,0,5.6-3.9,7.8,2.9"/>
					<path class="st2" d="M458.8,193.7c0,0,8.1,2.4,13.2-3.4"/>
					<polygon class="st18" points="469.6,212.1 480.8,211.3 469.6,220.9 					"/>
					<path class="st18" d="M477.6,147.2c0,0-5.6,2.2-5.1-1s2.2-4.6,2.2-4.6s-8.3,1-8.3,8.3s1.5,9.3,8.1,9.5c6.6,0.2,9.8-0.5,9.8-0.5
						s-3.9,2.4-2.9,5.9c1,3.4,1.7,4.9,1.7,4.9l3.7-3.9c0,0-3.2,5.1-1.2,8.6c2,3.4,2.7,5.9,1.5,8.1s-1.2,2.2-1.2,2.2l4.9,2.2l-3.7,2
						l8.6,0.5c0,0,4.6-4.9,5.9,0.2c1.2,5.1-1.2,9.3-3.9,11c-2.7,1.7-4.9,2.4-4.9,2.4s-0.5,1.5,0.5,4.4c1,2.9,3.2,3.4,3.2,3.4
						l1.7-3.4l1.2,4.4c0,0,0.5-2.4,2.2-4.4c1.7-2,2.7-2.2,6.6-3.7c3.9-1.5,12.9-3.7,17.1-11.3c4.2-7.6,0.8-21.2-1.7-31.5
						c-2.5-10.3-16.2-13.8-21.6-15c-5.4-1.2-8.7,1.8-10.7-1.1c-2-2.9,1.7-5.9,1.7-5.9s-6.9-1.5-11,2.4
						C477.6,145.3,477.6,147.2,477.6,147.2z"/>
				</g>
			</g>
		</g>
		<g>
			<path class="st16" d="M531.5,292.5h-13.7c-0.8,0-1.5,0.1-2.3,0.3h-82.9l-1,137h78.6h17.5H539V300
				C539,295.8,535.6,292.5,531.5,292.5z"/>
			<path class="st16" d="M437.7,429.8h-28.8V300c0-4.2,3.4-7.5,7.5-7.5h13.7c4.2,0,7.5,3.4,7.5,7.5L437.7,429.8L437.7,429.8z"/>
		</g>
		<g>
			<g>
				<path class="st13" d="M507.5,280.9l-1.3,10.1c0,0-23.7-3.4-34.5-5.6c-10.8-2.2-17.1-2.9-19.1-2s-14.9,9.3-14.9,9.3h16.9
					c0,0,23.5,13.5,39.9,18.6c16.4,5.1,26.9,5.6,28.1,5.1s2.9-7.3,2.9-7.3l4.7-25.3L507.5,280.9z"/>
				<path class="st2" d="M506.2,291.1c0,0,13.5,2.2,16.1,8.3"/>
			</g>
			<g>
				<path class="st20" d="M506.5,236.8c0,0-3.9,7.8-3.9,14.7s2,31.6,2,31.6s13.4,1.6,18.3,2.6c3.8,0.8,22.2-7.8,22.2-7.8
					s-14.6-36.7-18.2-43.5s-8.8-15.9-20.3-12.5"/>
			</g>
			<path class="st20" d="M527.7,277.3c2.8,1.1,4.9,1.6,5.2,1.6"/>
			<path class="st20" d="M504.6,253.2c0.6,0.9,1.7,7.4,8.2,14.7c3.3,3.7,8.2,6.5,12.3,8.3"/>
			<path class="st20" d="M512.6,278.9c1.2,1.5,2.3,2.8,3,3.2"/>
			<path class="st20" d="M508.3,272.2c0,0.4,1.5,2.8,3.1,5.1"/>
		</g>
	</g>
</g>
</svg>
